<svg width="33" height="11" viewBox="0 0 33 11" fill="none" xmlns="http://www.w3.org/2000/svg">
<path d="M13.91 10.6796H11.29L12.93 0.639648H15.54L13.91 10.6796Z" fill="#0066B2"/>
<path d="M9.09001 0.639648L6.60001 7.54965L6.31001 6.05965L5.43001 1.53965C5.43001 1.53965 5.32001 0.639648 4.19001 0.639648H0.0600097L0.0100098 0.809649C0.0100098 0.809649 1.27001 1.06965 2.75001 1.95965L5.02001 10.6896H7.75001L11.91 0.639648H9.09001Z" fill="#0066B2"/>
<path d="M29.67 10.6789H32.07L29.98 0.628906H27.88C26.91 0.628906 26.67 1.37891 26.67 1.37891L22.77 10.6789H25.5L26.05 9.18891H29.38L29.69 10.6789H29.67ZM26.79 7.12891L28.16 3.36891L28.93 7.12891H26.78H26.79Z" fill="#0066B2"/>
<path d="M22.97 3.04922L23.34 0.889219C23.34 0.889219 22.19 0.449219 20.99 0.449219C19.69 0.449219 16.61 1.01922 16.61 3.77922C16.61 6.37922 20.23 6.40922 20.23 7.76922C20.23 9.12922 16.99 8.88922 15.91 8.02922L15.52 10.2892C15.52 10.2892 16.69 10.8592 18.47 10.8592C20.25 10.8592 22.95 9.93922 22.95 7.41922C22.95 4.89922 19.3 4.55922 19.3 3.42922C19.3 2.29922 21.85 2.43922 22.97 3.05922V3.04922Z" fill="#0066B2"/>
<path d="M6.32 6.06914L5.44 1.52914C5.44 1.52914 5.33 0.619141 4.19 0.619141H0.05L0 0.889141C0 0.889141 1.99 1.19914 3.9 2.73914C5.73 4.21914 6.32 6.05914 6.32 6.05914V6.06914Z" fill="#F9A533"/>
</svg>
