<svg width="32" height="13" viewBox="0 0 32 13" fill="none" xmlns="http://www.w3.org/2000/svg">
<path d="M15.15 1.9191V4.9991H17.05C17.5 4.9991 17.88 4.8491 18.17 4.5391C18.47 4.2391 18.63 3.8691 18.63 3.4491C18.63 3.0291 18.48 2.6791 18.17 2.3791C17.87 2.0691 17.5 1.9091 17.05 1.9091H15.15V1.9191ZM15.15 6.0891V9.6691H14.01V0.829102H17.02C17.79 0.829102 18.43 1.0891 18.97 1.5891C19.51 2.0991 19.79 2.7191 19.79 3.4491C19.79 4.1791 19.52 4.8191 18.97 5.3191C18.44 5.8191 17.79 6.0691 17.02 6.0691H15.14L15.15 6.0891Z" fill="#5F6368"/>
<path d="M20.94 7.80895C20.94 8.10895 21.07 8.34895 21.32 8.54895C21.57 8.74895 21.86 8.84895 22.2 8.84895C22.68 8.84895 23.1 8.66894 23.48 8.31894C23.85 7.96895 24.04 7.54894 24.04 7.07895C23.69 6.79895 23.19 6.65895 22.56 6.65895C22.1 6.65895 21.71 6.76894 21.41 6.98895C21.1 7.20895 20.95 7.48895 20.95 7.81894L20.94 7.80895ZM22.41 3.41895C23.25 3.41895 23.91 3.63895 24.4 4.08895C24.89 4.53895 25.13 5.14895 25.13 5.92895V9.64894H24.04V8.80895H23.99C23.52 9.49895 22.9 9.84895 22.11 9.84895C21.44 9.84895 20.88 9.64895 20.44 9.25895C19.99 8.85895 19.77 8.36895 19.77 7.77894C19.77 7.15895 20.01 6.65895 20.48 6.28895C20.95 5.91895 21.59 5.72894 22.38 5.72894C23.05 5.72894 23.61 5.84895 24.05 6.09895V5.83895C24.05 5.44895 23.89 5.10895 23.58 4.83895C23.27 4.55895 22.9 4.42895 22.48 4.42895C21.85 4.42895 21.34 4.69894 20.97 5.22894L19.97 4.59895C20.52 3.80895 21.34 3.41895 22.42 3.41895H22.41Z" fill="#5F6368"/>
<path d="M31.36 3.61914L27.5701 12.3291H26.4001L27.8101 9.27914L25.3101 3.61914H26.55L28.3501 7.95914H28.3801L30.1301 3.61914H31.36Z" fill="#5F6368"/>
<path d="M10.5699 5.31906C10.5699 4.95906 10.5399 4.61906 10.4799 4.28906H5.68994V6.23906H8.42993C8.30993 6.87906 7.95995 7.41906 7.41995 7.77906V9.04906H9.05994C10.0199 8.16906 10.5699 6.85906 10.5699 5.31906Z" fill="#4285F4"/>
<path d="M5.69003 10.2689C7.06003 10.2689 8.21003 9.81895 9.06003 9.03895L7.42004 7.76895C6.96004 8.07895 6.38003 8.25895 5.69003 8.25895C4.37003 8.25895 3.24003 7.36895 2.84003 6.16895H1.15002V7.47894C1.99002 9.13894 3.70003 10.2789 5.69003 10.2789V10.2689Z" fill="#34A853"/>
<path d="M2.84 6.16895C2.74 5.85895 2.67999 5.53894 2.67999 5.19895C2.67999 4.85895 2.74 4.53894 2.84 4.22894V2.91895H1.14999C0.799994 3.60895 0.609985 4.37895 0.609985 5.19895C0.609985 6.01894 0.809994 6.78894 1.14999 7.47894L2.84 6.16895Z" fill="#FABB05"/>
<path d="M5.69003 2.12914C6.44003 2.12914 7.11005 2.38914 7.64005 2.88914L9.09003 1.43914C8.21003 0.619141 7.06003 0.119141 5.69003 0.119141C3.71003 0.119141 1.99002 1.25914 1.15002 2.91914L2.84003 4.22914C3.24003 3.02914 4.37003 2.13914 5.69003 2.13914V2.12914Z" fill="#E94235"/>
</svg>
