<svg width="26" height="16" viewBox="0 0 26 16" fill="none" xmlns="http://www.w3.org/2000/svg">
<path fill-rule="evenodd" clip-rule="evenodd" d="M13.48 13.9887C14.8 15.1987 16.58 15.9287 18.51 15.9287C22.66 15.9287 26.01 12.5787 26.01 8.42871C26.01 4.27871 22.66 0.928711 18.51 0.928711C16.58 0.928711 14.8 1.66871 13.48 2.86871C11.97 4.24871 11.01 6.21871 11.01 8.42871C11.01 10.6387 11.97 12.6187 13.48 13.9887Z" fill="#FCB131"/>
<path fill-rule="evenodd" clip-rule="evenodd" d="M25.01 12.5984C25.01 12.4684 25.11 12.3584 25.26 12.3584C25.39 12.3584 25.5 12.4584 25.5 12.5984C25.5 12.7384 25.4 12.8484 25.26 12.8484C25.11 12.8484 25.01 12.7284 25.01 12.5984ZM25.26 12.7884C25.35 12.7884 25.44 12.6984 25.44 12.5984C25.44 12.4984 25.35 12.4184 25.26 12.4184C25.16 12.4184 25.07 12.4884 25.07 12.5984C25.07 12.7084 25.16 12.7884 25.26 12.7884ZM25.22 12.7184H25.18V12.4984H25.27C25.27 12.4984 25.31 12.4984 25.33 12.5084C25.34 12.5184 25.36 12.5384 25.36 12.5484C25.36 12.5784 25.35 12.6084 25.32 12.6084L25.36 12.7084H25.3L25.27 12.6184H25.23V12.7084L25.22 12.7184ZM25.22 12.5884H25.28C25.28 12.5884 25.29 12.5784 25.29 12.5584C25.29 12.5584 25.29 12.5484 25.28 12.5484H25.22V12.5884Z" fill="#FCB131"/>
<path fill-rule="evenodd" clip-rule="evenodd" d="M15.91 7.62873C15.88 7.36873 15.84 7.09873 15.78 6.83873H11.19C11.25 6.57873 11.32 6.30873 11.41 6.04873H15.56C15.47 5.78873 15.37 5.51873 15.25 5.25873H11.72C11.85 4.99873 12 4.72873 12.16 4.46873H14.81C14.65 4.18873 14.46 3.92873 14.24 3.67873H12.74C12.96 3.39873 13.23 3.13873 13.49 2.88873C12.17 1.67873 10.4 0.94873 8.45996 0.94873C4.30996 0.94873 0.959961 4.31873 0.959961 8.44873C0.959961 12.5787 4.30996 15.9487 8.45996 15.9487C10.4 15.9487 12.17 15.2087 13.49 14.0087C13.75 13.7587 14.02 13.4987 14.25 13.2187H12.74C12.53 12.9687 12.34 12.7087 12.17 12.4287H14.82C14.98 12.1787 15.13 11.9187 15.26 11.6387H11.73C11.61 11.3887 11.51 11.1287 11.42 10.8487H15.57C15.66 10.5887 15.73 10.3187 15.79 10.0587C15.85 9.79873 15.89 9.52873 15.92 9.26873C15.95 9.00873 15.96 8.73873 15.96 8.47873C15.96 8.21873 15.95 7.94873 15.92 7.68873L15.91 7.62873Z" fill="#ED1C2E"/>
<path fill-rule="evenodd" clip-rule="evenodd" d="M25.01 10.1585C25.01 10.0285 25.11 9.91846 25.26 9.91846C25.39 9.91846 25.5 10.0185 25.5 10.1585C25.5 10.2985 25.4 10.4085 25.26 10.4085C25.11 10.4085 25.01 10.2885 25.01 10.1585ZM25.26 10.3485C25.35 10.3485 25.44 10.2585 25.44 10.1585C25.44 10.0585 25.35 9.97846 25.26 9.97846C25.16 9.97846 25.07 10.0485 25.07 10.1585C25.07 10.2685 25.16 10.3485 25.26 10.3485ZM25.22 10.2785H25.18V10.0585H25.27C25.27 10.0585 25.31 10.0585 25.33 10.0685C25.34 10.0785 25.36 10.0985 25.36 10.1085C25.36 10.1385 25.35 10.1685 25.32 10.1685L25.36 10.2685H25.3L25.27 10.1785H25.23V10.2685L25.22 10.2785ZM25.22 10.1485H25.28C25.28 10.1485 25.29 10.1385 25.29 10.1185C25.29 10.1185 25.29 10.1085 25.28 10.1085H25.22V10.1485Z" fill="white"/>
<path fill-rule="evenodd" clip-rule="evenodd" d="M10.94 10.5884C10.69 10.6584 10.51 10.6884 10.32 10.6884C9.93995 10.6884 9.69995 10.4484 9.69995 10.0084C9.69995 9.91836 9.70995 9.82836 9.72995 9.72836L9.76995 9.43836L9.80995 9.18836L10.16 7.06836H10.94L10.8499 7.53836H11.3399L11.22 8.31836H10.73L10.51 9.57836C10.51 9.57836 10.5 9.66836 10.5 9.69836C10.5 9.85836 10.5899 9.93836 10.7799 9.93836C10.8799 9.93836 10.9399 9.92836 11.0299 9.90836L10.93 10.5884H10.94Z" fill="#003473"/>
<path fill-rule="evenodd" clip-rule="evenodd" d="M13.45 10.5585C13.17 10.6485 12.89 10.6885 12.61 10.6885C11.74 10.6885 11.23 10.2185 11.23 9.3085C11.23 8.2485 11.83 7.4585 12.66 7.4585C13.32 7.4585 13.75 7.8985 13.75 8.5885C13.75 8.8085 13.72 9.0285 13.65 9.3485H12.03V9.4385C12.03 9.8085 12.27 9.9785 12.74 9.9785C13.03 9.9785 13.3 9.9185 13.59 9.7885L13.46 10.5485L13.45 10.5585ZM12.96 8.7185V8.5685C12.96 8.3185 12.81 8.1685 12.58 8.1685C12.32 8.1685 12.14 8.3585 12.07 8.7085H12.97L12.96 8.7185Z" fill="#003473"/>
<path fill-rule="evenodd" clip-rule="evenodd" d="M4.71994 10.6284H3.90994L4.37994 7.70836L3.32994 10.6284H2.76994L2.71994 7.71836L2.21994 10.6284H1.43994L2.06994 6.81836H3.22994L3.26994 9.17836L4.04994 6.81836H5.34994L4.71994 10.6284Z" fill="#003473"/>
<path fill-rule="evenodd" clip-rule="evenodd" d="M6.66993 9.24826C6.57993 9.24826 6.56993 9.23826 6.50993 9.23826C6.04993 9.23826 5.81993 9.41826 5.81993 9.70826C5.81993 9.91826 5.93993 10.0283 6.10993 10.0283C6.50993 10.0283 6.64993 9.70826 6.66993 9.24826ZM7.31993 10.6283H6.60993V10.3083C6.44993 10.5583 6.20993 10.6883 5.76993 10.6883C5.36993 10.6883 5.04993 10.3383 5.04993 9.83826C5.04993 9.68826 5.07993 9.55826 5.10993 9.43826C5.23993 8.94826 5.72993 8.65826 6.45993 8.64826C6.54993 8.64826 6.69993 8.64826 6.80993 8.65826C6.83993 8.55826 6.83993 8.50826 6.83993 8.44826C6.83993 8.23826 6.67993 8.18826 6.29993 8.18826C6.05993 8.18826 5.80993 8.22826 5.61993 8.27826L5.51993 8.31826H5.45993L5.57993 7.62826C5.95993 7.50826 6.22993 7.46826 6.51993 7.46826C7.22993 7.46826 7.58993 7.77826 7.58993 8.37826C7.58993 8.52826 7.59993 8.63826 7.54993 8.97826L7.38993 10.0783L7.35993 10.2683L7.32993 10.4283V10.6183H7.31993V10.6283Z" fill="#003473"/>
<path fill-rule="evenodd" clip-rule="evenodd" d="M17.3599 7.5683C17.5799 7.5683 17.7899 7.6283 18.0799 7.7783L18.2099 6.9383C18.1399 6.9083 18.1199 6.9083 18.0199 6.8683L17.6799 6.7983C17.5799 6.7683 17.4599 6.7583 17.3099 6.7583C16.9099 6.7583 16.6799 6.7583 16.4299 6.9183C16.2999 6.9883 16.1399 7.1083 15.9399 7.3183L15.8499 7.2883L15.0099 7.8783L15.0499 7.5583H14.1799L13.6899 10.6483H14.4999L14.7899 8.9883C14.7899 8.9883 14.9099 8.7483 14.9699 8.6783C15.1199 8.4883 15.2499 8.4883 15.4099 8.4883H15.4699C15.4599 8.6683 15.4399 8.8683 15.4399 9.0783C15.4399 10.0883 16.0099 10.7283 16.8999 10.7283C17.1199 10.7283 17.3099 10.6983 17.6099 10.6083L17.7599 9.7383C17.4999 9.8683 17.2699 9.9283 17.0699 9.9283C16.5999 9.9283 16.3199 9.5883 16.3199 8.9983C16.3199 8.1783 16.7299 7.5883 17.3499 7.5883L17.3599 7.5683Z" fill="#003473"/>
<path fill-rule="evenodd" clip-rule="evenodd" d="M24.2299 6.81836L24.0499 7.90836C23.8599 7.61836 23.6199 7.47836 23.3099 7.47836C22.8799 7.47836 22.4899 7.71836 22.2399 8.16836L21.7299 7.85836L21.7699 7.53836H20.8999L20.3999 10.6284H21.2199L21.4799 8.96836C21.4799 8.96836 21.6899 8.72836 21.7399 8.65836C21.8599 8.50836 21.9899 8.46836 22.0899 8.46836C21.9999 8.72836 21.9399 9.03836 21.9399 9.37836C21.9399 10.1584 22.3499 10.6684 22.9399 10.6684C23.2299 10.6684 23.4699 10.5684 23.6899 10.3184L23.6499 10.6284H24.4299L25.0499 6.81836H24.2099H24.2299ZM23.2399 9.88836C22.9599 9.88836 22.8299 9.69836 22.8299 9.28836C22.8299 8.68836 23.0799 8.24836 23.4599 8.24836C23.7399 8.24836 23.8899 8.46836 23.8899 8.86836C23.8899 9.46836 23.6299 9.89836 23.2399 9.89836V9.88836Z" fill="#003473"/>
<path fill-rule="evenodd" clip-rule="evenodd" d="M19.49 9.24826C19.4 9.24826 19.39 9.23826 19.33 9.23826C18.87 9.23826 18.64 9.41826 18.64 9.70826C18.64 9.91826 18.76 10.0283 18.93 10.0283C19.33 10.0283 19.47 9.70826 19.49 9.24826ZM20.14 10.6283H19.43V10.3083C19.27 10.5583 19.03 10.6883 18.59 10.6883C18.19 10.6883 17.84 10.3483 17.84 9.83826C17.85 9.09826 18.4 8.64826 19.28 8.64826C19.37 8.64826 19.52 8.64826 19.63 8.65826C19.66 8.55826 19.66 8.50826 19.66 8.44826C19.66 8.23826 19.5 8.18826 19.12 8.18826C18.88 8.18826 18.62 8.22826 18.44 8.27826L18.32 8.31826H18.28L18.4 7.62826C18.78 7.50826 19.05 7.46826 19.34 7.46826C20.05 7.46826 20.41 7.77826 20.41 8.37826C20.41 8.52826 20.42 8.63826 20.37 8.97826L20.21 10.0783L20.18 10.2683L20.15 10.4283V10.5283L20.14 10.6183V10.6283Z" fill="#003473"/>
<path fill-rule="evenodd" clip-rule="evenodd" d="M9.00999 8.20826C9.16999 8.20826 9.38999 8.21826 9.62999 8.24826L9.74999 7.52826C9.50999 7.49826 9.20999 7.46826 9.00999 7.46826C8.10999 7.46826 7.79999 7.95826 7.79999 8.52826C7.79999 8.89826 7.97999 9.17826 8.39999 9.36826C8.73999 9.52826 8.79999 9.55826 8.79999 9.68826C8.79999 9.87826 8.61999 9.99826 8.29999 9.99826C8.05999 9.99826 7.83999 9.95826 7.57999 9.87826L7.48999 10.5883H7.49999L7.64999 10.6183C7.64999 10.6183 7.76999 10.6483 7.85999 10.6483C8.06999 10.6783 8.22999 10.6783 8.32999 10.6783C9.22999 10.6783 9.60999 10.3383 9.60999 9.64826C9.60999 9.21826 9.39999 8.96826 8.98999 8.79826C8.64999 8.63826 8.60999 8.61826 8.60999 8.47826C8.60999 8.33826 8.75999 8.21826 9.00999 8.21826V8.20826Z" fill="#003473"/>
<path fill-rule="evenodd" clip-rule="evenodd" d="M18.44 6.70855L18.31 7.52855C18.02 7.37855 17.81 7.31855 17.59 7.31855C16.97 7.31855 16.55 7.90855 16.55 8.74855C16.55 9.31855 16.84 9.67855 17.31 9.67855C17.52 9.67855 17.74 9.61855 18 9.48855L17.85 10.3586C17.56 10.4286 17.36 10.4586 17.13 10.4586C16.26 10.4586 15.72 9.83855 15.72 8.82855C15.72 7.45855 16.47 6.51855 17.54 6.51855C17.69 6.51855 17.8 6.52855 17.91 6.54855L18.25 6.63855C18.35 6.67855 18.37 6.67855 18.44 6.70855Z" fill="white"/>
<path fill-rule="evenodd" clip-rule="evenodd" d="M15.8299 7.27855C15.8299 7.27855 15.7699 7.26855 15.7399 7.26855C15.4799 7.26855 15.3299 7.39855 15.0799 7.76855L15.1499 7.29855H14.3999L13.9099 10.3986H14.7199C15.0099 8.49855 15.0899 8.17855 15.4799 8.17855H15.5399C15.6099 7.80855 15.6999 7.52855 15.8499 7.27855H15.8199H15.8299Z" fill="white"/>
<path fill-rule="evenodd" clip-rule="evenodd" d="M11.1399 10.3484C10.9199 10.4184 10.7399 10.4484 10.5499 10.4484C10.1399 10.4484 9.8999 10.2084 9.8999 9.76836C9.8999 9.67836 9.9099 9.58836 9.9299 9.48836L9.9699 9.17836L10.0099 8.93836L10.3599 6.81836H11.1699L11.0799 7.27836H11.4899L11.3699 8.03836H10.9599L10.7399 9.31836C10.7399 9.37836 10.7299 9.41836 10.7299 9.44836C10.7299 9.60836 10.8199 9.68836 11.0099 9.68836C11.1099 9.68836 11.1699 9.67836 11.2299 9.65836L11.1299 10.3384L11.1399 10.3484Z" fill="white"/>
<path fill-rule="evenodd" clip-rule="evenodd" d="M8.00995 8.27828C8.00995 8.65828 8.19995 8.93828 8.62995 9.12828C8.96995 9.28828 9.00995 9.33828 9.00995 9.47828C9.00995 9.66828 8.85995 9.75828 8.53995 9.75828C8.29995 9.75828 8.07995 9.71828 7.81995 9.62828L7.69995 10.3483H7.73995L7.88995 10.3783C7.88995 10.3783 8.00995 10.4083 8.09995 10.4083C8.28995 10.4183 8.44995 10.4383 8.55995 10.4383C9.40995 10.4383 9.80995 10.1183 9.80995 9.40828C9.80995 8.97828 9.64995 8.72828 9.23995 8.53828C8.89995 8.38828 8.85995 8.34828 8.85995 8.21828C8.85995 8.03828 8.98995 7.95828 9.25995 7.95828C9.41995 7.95828 9.63995 7.98828 9.84995 8.01828L9.96995 7.29828C9.75995 7.26828 9.43995 7.23828 9.24995 7.23828C8.33995 7.23828 8.02995 7.70828 8.02995 8.27828H8.00995Z" fill="white"/>
<path fill-rule="evenodd" clip-rule="evenodd" d="M24.6599 10.3984H23.8799L23.9199 10.0884C23.6999 10.3284 23.4599 10.4284 23.1699 10.4284C22.5799 10.4284 22.1799 9.92838 22.1799 9.14838C22.1799 8.11838 22.7799 7.24838 23.4999 7.24838C23.8199 7.24838 24.0599 7.37838 24.2799 7.67838L24.4599 6.58838H25.2699L24.6499 10.3984H24.6599ZM23.4499 9.65838C23.8299 9.65838 24.0999 9.22838 24.0999 8.61838C24.0999 8.23838 23.9499 8.01838 23.6699 8.01838C23.2999 8.01838 23.0399 8.44838 23.0399 9.05838C23.0399 9.45838 23.1699 9.65838 23.4499 9.65838Z" fill="white"/>
<path fill-rule="evenodd" clip-rule="evenodd" d="M13.6299 10.3183C13.3499 10.4083 13.0899 10.4483 12.7899 10.4483C11.8799 10.4483 11.4099 9.95826 11.4099 9.06826C11.4099 7.99826 12.0099 7.21826 12.8399 7.21826C13.4999 7.21826 13.9299 7.65826 13.9299 8.34826C13.9299 8.56826 13.8999 8.78826 13.8399 9.10826H12.2199C12.2199 9.10826 12.2099 9.16826 12.2099 9.19826C12.2099 9.54826 12.4499 9.73826 12.9299 9.73826C13.2099 9.73826 13.4699 9.67826 13.7699 9.54826L13.6399 10.3083L13.6299 10.3183ZM13.1699 8.47826V8.31826C13.1699 8.06826 13.0399 7.91826 12.7899 7.91826C12.5399 7.91826 12.3499 8.12826 12.2799 8.47826H13.1799H13.1699Z" fill="white"/>
<path fill-rule="evenodd" clip-rule="evenodd" d="M4.91992 10.3984H4.10992L4.57993 7.46838L3.53992 10.3984H2.97992L2.91992 7.48838L2.41992 10.3984H1.66992L2.29992 6.58838H3.46992L3.50992 8.93838L4.28992 6.58838H5.54992L4.91992 10.3984Z" fill="white"/>
<path fill-rule="evenodd" clip-rule="evenodd" d="M6.94002 9.00852C6.85002 8.99852 6.81002 8.99852 6.75002 8.99852C6.29002 8.99852 6.06002 9.15852 6.06002 9.46852C6.06002 9.65852 6.18002 9.78852 6.35002 9.78852C6.69002 9.78852 6.92002 9.46852 6.94002 9.00852ZM7.53002 10.3885H6.85002V10.0685C6.66002 10.3185 6.39002 10.4385 6.01002 10.4385C5.57002 10.4385 5.27002 10.0985 5.27002 9.59852C5.27002 8.84852 5.78002 8.40852 6.70002 8.40852C6.79002 8.40852 6.91002 8.40852 7.02002 8.41852C7.05002 8.32852 7.05002 8.28852 7.05002 8.22852C7.05002 8.01852 6.92002 7.94852 6.54002 7.94852C6.30002 7.94852 6.04002 7.97852 5.86002 8.03852L5.74002 8.06852H5.67002L5.79002 7.38852C6.20002 7.26852 6.47002 7.22852 6.76002 7.22852C7.47002 7.22852 7.83002 7.53852 7.83002 8.12852C7.83002 8.28852 7.82002 8.40852 7.76002 8.74852L7.60002 9.84852L7.57002 10.0385V10.1985L7.54002 10.2985V10.3885H7.53002Z" fill="white"/>
<path fill-rule="evenodd" clip-rule="evenodd" d="M19.76 9.00852C19.67 8.99852 19.63 8.99852 19.57 8.99852C19.11 8.99852 18.88 9.15852 18.88 9.46852C18.88 9.65852 19 9.78852 19.17 9.78852C19.49 9.78852 19.74 9.46852 19.76 9.00852ZM20.35 10.3885H19.67V10.0685C19.48 10.3185 19.2 10.4385 18.83 10.4385C18.39 10.4385 18.08 10.0985 18.08 9.59852C18.08 8.84852 18.61 8.40852 19.52 8.40852C19.61 8.40852 19.73 8.40852 19.84 8.41852C19.87 8.32852 19.87 8.28852 19.87 8.22852C19.87 8.01852 19.74 7.94852 19.36 7.94852C19.12 7.94852 18.86 7.97852 18.68 8.03852L18.56 8.06852H18.49L18.61 7.38852C19.02 7.26852 19.29 7.22852 19.58 7.22852C20.29 7.22852 20.65 7.53852 20.65 8.12852C20.65 8.28852 20.64 8.40852 20.58 8.74852L20.42 9.84852L20.39 10.0385L20.36 10.1985V10.2985L20.35 10.3885Z" fill="white"/>
<path fill-rule="evenodd" clip-rule="evenodd" d="M22.52 7.27855C22.52 7.27855 22.48 7.26855 22.45 7.26855C22.19 7.26855 22.02 7.39855 21.77 7.76855L21.84 7.29855H21.1L20.6 10.3986H21.42C21.7 8.49855 21.79 8.17855 22.17 8.17855H22.23C22.3 7.80855 22.41 7.52855 22.54 7.27855H22.51H22.52Z" fill="white"/>
</svg>
