<svg width="33" height="12" viewBox="0 0 33 12" fill="none" xmlns="http://www.w3.org/2000/svg">
<path d="M20.5699 0.678734C20.5699 0.678734 21.5199 1.33873 20.5699 1.46873C20.5699 1.46873 17.0099 1.87873 14.3599 4.36873C14.3599 4.36873 10.3899 7.84873 8.88992 11.6587C8.88992 11.6587 8.38991 11.6587 8.55991 10.9087C8.72991 10.1587 9.71991 6.88873 14.1499 2.87873C14.1499 2.87873 18.4099 -1.01127 20.5699 0.688734V0.678734ZM9.26992 1.17873C9.30992 2.08873 10.0999 5.56873 10.0999 5.56873C10.3899 6.26873 10.6399 5.56873 10.6399 5.56873C11.5899 2.70873 9.64991 1.05873 9.64991 1.05873C9.14991 0.768734 9.27992 1.17873 9.27992 1.17873H9.26992Z" fill="#F64D25"/>
<path d="M2.91995 6.23857C2.67995 6.23857 2.53995 6.21857 2.38995 6.18857L2.74995 4.26857C2.85995 4.24857 3.04995 4.22857 3.30995 4.22857C3.83995 4.22857 4.27995 4.42857 4.27995 5.04857C4.27995 5.70857 3.73995 6.23857 2.91995 6.23857ZM3.20996 3.53857C2.69996 3.53857 2.16996 3.58857 1.82996 3.67857L0.829956 8.99857H1.93996L2.29996 7.04857C2.41996 7.04857 2.57996 7.07857 2.76996 7.07857C3.41996 7.07857 4.03995 6.91857 4.47995 6.56857C4.88995 6.24857 5.19995 5.72857 5.19995 5.04857C5.19995 4.52857 4.98995 4.13857 4.61995 3.89857C4.22995 3.61857 3.68996 3.53857 3.20996 3.53857Z" fill="#363636"/>
<path d="M6.40001 8.3485C6.03001 8.3485 5.86002 8.0485 5.86002 7.6085C5.86002 6.7785 6.48002 5.7385 7.33002 5.7385C7.47002 5.7385 7.58001 5.7585 7.68001 5.7785L7.50002 6.8085C7.30002 7.9085 6.80001 8.3485 6.40001 8.3485ZM7.67001 4.9585C5.68001 4.9585 4.77002 6.4185 4.77002 7.7785C4.77002 8.6185 5.27002 9.1885 5.99002 9.1885C6.46002 9.1885 6.98002 8.9685 7.36002 8.2985H7.38002C7.36002 8.5885 7.34002 8.8685 7.33002 9.0985H8.42001C8.40001 8.5985 8.49001 7.7985 8.59001 7.2785L9.00002 5.1585C8.67002 5.0485 8.16001 4.9585 7.67001 4.9585Z" fill="#363636"/>
<path d="M15.1299 8.3785C14.6599 8.3785 14.3799 8.0385 14.3799 7.5185C14.3799 6.8385 14.7899 5.7485 15.5899 5.7485C16.1399 5.7485 16.3299 6.1685 16.3299 6.5885C16.3299 7.3385 15.8999 8.3685 15.1399 8.3685L15.1299 8.3785ZM15.7099 4.9585C14.2699 4.9585 13.2899 6.1185 13.2899 7.5185C13.2899 8.5185 13.9799 9.1885 15.0099 9.1885C16.3999 9.1885 17.4199 8.1085 17.4199 6.6285C17.4199 5.6985 16.7899 4.9585 15.6999 4.9585H15.7099Z" fill="#363636"/>
<path d="M20.6 4.94824C20.07 4.94824 19.57 5.18824 19.19 5.70824H19.17L19.24 5.03824H18.19C18.14 5.39824 18.07 5.83824 17.97 6.35824L17.46 9.08824H18.6499L18.9799 7.28824C19.1499 6.39824 19.6 5.90824 19.99 5.90824C20.3 5.90824 20.3999 6.10824 20.3999 6.39824C20.3999 6.54824 20.38 6.70824 20.36 6.84824L19.94 9.08824H21.13L21.58 6.73824C21.61 6.53824 21.6499 6.23824 21.6499 6.05824C21.6499 5.35824 21.27 4.94824 20.61 4.94824H20.6Z" fill="#363636"/>
<path d="M23.07 6.7485C23.07 6.7485 23.01 6.7485 22.97 6.7485C23.07 6.2985 23.45 5.7385 24.12 5.7385C24.45 5.7385 24.65 5.9085 24.65 6.1485C24.65 6.5985 24.12 6.7485 23.06 6.7485H23.07ZM24.22 4.9585C22.76 4.9585 21.86 6.2385 21.86 7.4785C21.86 8.5385 22.46 9.1885 23.61 9.1885C24.06 9.1885 24.64 9.1085 25.12 8.8685L25.04 8.0085C24.72 8.1685 24.34 8.2685 23.91 8.2685C23.56 8.2685 23.29 8.1585 23.13 7.9585C23.05 7.8385 23.01 7.6585 23.01 7.5485C23.09 7.5485 23.17 7.5485 23.24 7.5485C24.72 7.5485 25.63 7.1685 25.63 6.1885C25.63 5.4385 25.04 4.9685 24.22 4.9685V4.9585Z" fill="#363636"/>
<path d="M26.8599 6.7485C26.8599 6.7485 26.7999 6.7485 26.7599 6.7485C26.8599 6.2985 27.2399 5.7385 27.9099 5.7385C28.2399 5.7385 28.4399 5.9085 28.4399 6.1485C28.4399 6.5985 27.9099 6.7485 26.8499 6.7485H26.8599ZM28.0099 4.9585C26.5499 4.9585 25.6499 6.2385 25.6499 7.4785C25.6499 8.5385 26.2499 9.1885 27.3999 9.1885C27.8499 9.1885 28.4299 9.1085 28.9099 8.8685L28.8299 8.0085C28.5099 8.1685 28.1399 8.2685 27.6999 8.2685C27.3499 8.2685 27.0799 8.1585 26.9199 7.9585C26.8399 7.8385 26.7999 7.6585 26.7999 7.5485C26.8799 7.5485 26.9599 7.5485 27.0299 7.5485C28.5099 7.5485 29.4199 7.1685 29.4199 6.1885C29.4199 5.4385 28.8299 4.9685 28.0099 4.9685V4.9585Z" fill="#363636"/>
<path d="M32.12 4.94871C31.57 4.94871 31.24 5.33871 30.96 5.87871H30.93C30.96 5.58871 30.99 5.31871 31 5.03871H29.97C29.99 5.45871 29.93 6.31871 29.82 6.92871L29.36 9.07871H30.35L30.61 7.56871C30.76 6.77871 31.16 5.96871 31.91 5.96871C31.98 5.96871 32.04 5.96871 32.09 5.96871L32.34 4.92871C32.27 4.92871 32.2 4.92871 32.12 4.92871V4.94871Z" fill="#363636"/>
</svg>
