<svg width="31" height="9" viewBox="0 0 31 9" fill="none" xmlns="http://www.w3.org/2000/svg">
<path fill-rule="evenodd" clip-rule="evenodd" d="M3.3601 2.31834H5.5001C6.6501 2.31834 7.0801 2.89834 7.0201 3.75834C6.9101 5.16834 6.0601 5.94834 4.9201 5.94834H4.3501C4.1901 5.94834 4.0901 6.04834 4.0501 6.32834L3.8001 7.94834C3.7801 8.05834 3.7301 8.11834 3.6501 8.11834H2.3101C2.1801 8.11834 2.1401 8.01834 2.1701 7.80834L2.9901 2.60834C3.0201 2.39834 3.1401 2.29834 3.3601 2.29834V2.31834Z" fill="#009DE2"/>
<path fill-rule="evenodd" clip-rule="evenodd" d="M11.2701 2.21826C11.9901 2.21826 12.6601 2.60826 12.5701 3.58826C12.4601 4.74826 11.8401 5.39826 10.8501 5.39826H9.99011C9.87011 5.39826 9.81011 5.49826 9.77011 5.70826L9.60011 6.76826C9.58011 6.92826 9.49011 7.00826 9.37011 7.00826H8.57011C8.44011 7.00826 8.40011 6.92826 8.43011 6.74826L9.0901 2.51826C9.1201 2.30826 9.20011 2.22826 9.3401 2.22826H11.2501L11.2701 2.21826ZM9.97011 4.47826H10.6201C11.0301 4.45826 11.3001 4.17826 11.3201 3.67826C11.3401 3.36826 11.1201 3.13826 10.7901 3.13826H10.1801L9.97011 4.47826ZM14.7401 6.66826C14.8101 6.59826 14.8901 6.56826 14.8801 6.64826L14.8501 6.84826C14.8401 6.94826 14.8801 7.00826 14.9701 7.00826H15.6801C15.8001 7.00826 15.8601 6.95826 15.8901 6.77826L16.3301 4.03826C16.3501 3.89826 16.3201 3.82826 16.2101 3.82826H15.4301C15.3601 3.82826 15.3301 3.86826 15.3101 3.97826L15.2801 4.14826C15.2601 4.23826 15.2201 4.24826 15.1901 4.15826C15.0601 3.84826 14.7201 3.70826 14.2501 3.71826C13.1601 3.73826 12.4201 4.56826 12.3401 5.63826C12.2801 6.45826 12.8701 7.10826 13.6501 7.10826C14.2101 7.10826 14.4701 6.93826 14.7501 6.67826L14.7401 6.66826ZM14.1501 6.24826C13.6801 6.24826 13.3501 5.86826 13.4201 5.40826C13.4901 4.94826 13.9301 4.56826 14.4001 4.56826C14.8701 4.56826 15.2001 4.94826 15.1301 5.40826C15.0601 5.86826 14.6201 6.24826 14.1501 6.24826ZM17.7201 3.80826H17.0001C16.8501 3.80826 16.7901 3.91826 16.8401 4.05826L17.7301 6.67826L16.8501 7.91826C16.7801 8.01826 16.8301 8.11826 16.9401 8.11826H17.7501C17.8701 8.11826 17.9301 8.08826 17.9901 7.99826L20.7401 4.05826C20.8201 3.93826 20.7801 3.80826 20.6501 3.80826H19.8901C19.7601 3.80826 19.7101 3.85826 19.6301 3.96826L18.4801 5.62826L17.9701 3.96826C17.9401 3.86826 17.8601 3.80826 17.7301 3.80826H17.7201Z" fill="#113984"/>
<path fill-rule="evenodd" clip-rule="evenodd" d="M23.5901 2.21826C24.3101 2.21826 24.9801 2.60826 24.8901 3.58826C24.7801 4.74826 24.1601 5.39826 23.1701 5.39826H22.3101C22.1901 5.39826 22.1301 5.49826 22.0901 5.70826L21.9201 6.76826C21.9001 6.92826 21.8101 7.00826 21.6901 7.00826H20.8901C20.7601 7.00826 20.7201 6.92826 20.7501 6.74826L21.4101 2.51826C21.4401 2.30826 21.5201 2.22826 21.6601 2.22826H23.5701L23.5901 2.21826ZM22.2901 4.47826H22.9401C23.3501 4.45826 23.6201 4.17826 23.6401 3.67826C23.6601 3.36826 23.4401 3.13826 23.1101 3.13826H22.5001L22.2901 4.47826ZM27.0601 6.66826C27.1301 6.59826 27.2101 6.56826 27.2001 6.64826L27.1701 6.84826C27.1601 6.94826 27.2001 7.00826 27.2901 7.00826H28.0001C28.1201 7.00826 28.1801 6.95826 28.2101 6.77826L28.65 4.03826C28.67 3.89826 28.6401 3.82826 28.5301 3.82826H27.7501C27.6801 3.82826 27.6501 3.86826 27.6301 3.97826L27.6001 4.14826C27.5901 4.23826 27.5401 4.24826 27.5101 4.15826C27.3801 3.84826 27.0401 3.70826 26.5701 3.71826C25.4801 3.73826 24.7401 4.56826 24.6601 5.63826C24.6001 6.45826 25.1901 7.10826 25.9701 7.10826C26.5301 7.10826 26.7901 6.93826 27.0701 6.67826L27.0601 6.66826ZM26.4701 6.24826C26.0001 6.24826 25.6701 5.86826 25.7401 5.40826C25.8101 4.94826 26.2501 4.56826 26.7201 4.56826C27.1901 4.56826 27.5201 4.94826 27.4501 5.40826C27.3801 5.86826 26.9401 6.24826 26.4701 6.24826ZM29.7401 7.00826H28.9201C28.8601 7.00826 28.8101 6.95826 28.8201 6.89826L29.54 2.33826C29.54 2.27826 29.61 2.22826 29.68 2.22826H30.5001C30.5701 2.22826 30.6101 2.27826 30.6001 2.33826L29.8801 6.89826C29.8801 6.95826 29.8101 7.00826 29.7401 7.00826Z" fill="#009DE2"/>
<path fill-rule="evenodd" clip-rule="evenodd" d="M2.02005 0.528555H4.17005C4.77005 0.528555 5.49005 0.548555 5.97005 0.968554C6.29005 1.24855 6.46005 1.69855 6.42005 2.18855C6.29005 3.82855 5.31005 4.74855 3.99005 4.74855H2.93005C2.75005 4.74855 2.63005 4.86855 2.58005 5.18855L2.28005 7.06855C2.26005 7.18855 2.21005 7.25855 2.11005 7.26856H0.79005C0.64005 7.26856 0.590046 7.15855 0.630046 6.90855L1.58005 0.878555C1.62005 0.638555 1.75005 0.518555 2.01005 0.518555L2.02005 0.528555Z" fill="#113984"/>
<path fill-rule="evenodd" clip-rule="evenodd" d="M2.6101 4.9881L2.9801 2.6181C3.0101 2.4081 3.1301 2.30811 3.3501 2.30811H5.4901C5.8401 2.30811 6.1301 2.36811 6.3601 2.46811C6.1401 3.92811 5.2001 4.7381 3.9701 4.7381H2.9101C2.7701 4.7381 2.6701 4.8081 2.6001 4.9881H2.6101Z" fill="#172C70"/>
</svg>
