<svg width="31" height="11" viewBox="0 0 31 11" fill="none" xmlns="http://www.w3.org/2000/svg">
<path d="M24.43 1.13867L26.91 0.698672V10.2387H24.43V1.13867ZM28.06 1.13867V10.2387H30.55V0.698672L28.06 1.13867ZM20.89 10.2387H23.3801V3.25867H20.89V10.2387ZM4.46005 4.24867C4.15005 4.22867 3.42004 4.17867 3.42004 3.52867C3.42004 2.73867 4.47005 2.73867 4.86005 2.73867C5.55005 2.73867 6.45005 2.93867 7.08005 3.13867C7.08005 3.13867 7.44005 3.26867 7.74005 3.38867H7.77005V3.36867V1.22867H7.73004C6.98004 0.948672 6.10005 0.698672 4.47005 0.698672C1.67005 0.698672 0.670044 2.32867 0.670044 3.72867C0.670044 4.53867 1.02005 6.42867 4.22005 6.64867C4.49005 6.66867 5.21005 6.70867 5.21005 7.37867C5.21005 7.93867 4.62004 8.26867 3.62004 8.26867C2.53004 8.26867 1.47005 7.98867 0.830048 7.72867V9.95867C1.79005 10.2087 2.87005 10.3387 4.14005 10.3387C6.88004 10.3387 8.11005 8.79867 8.11005 7.25867C8.11005 5.51867 6.74004 4.39867 4.43004 4.23867L4.46005 4.24867ZM19.4901 3.15867C17.1901 3.22867 16.03 4.25867 16.03 6.30867V10.2387H18.54V7.03867C18.54 5.80867 18.7001 5.28867 20.16 5.23867V3.19867C19.92 3.14867 19.5 3.15867 19.5 3.15867H19.4901ZM12.75 3.24867C12.69 3.38867 12.3 4.50867 11.33 5.67867V0.698672L8.76004 1.20867V10.2387H11.33V7.44867C12.07 8.55867 12.44 10.2387 12.44 10.2387H15.51C15.21 8.97867 13.8801 6.64867 13.8801 6.64867C15.0701 5.13867 15.6 3.52867 15.68 3.25867H12.75V3.24867ZM22.14 2.58867C22.82 2.58867 23.37 2.03867 23.37 1.36867C23.37 0.698672 22.82 0.138672 22.14 0.138672C21.46 0.138672 20.92 0.688672 20.92 1.36867C20.92 2.04867 21.47 2.58867 22.14 2.58867Z" fill="#862165"/>
</svg>
